{
	"asset":{
		"generator":"Khronos glTF Blender I/O v4.1.63",
		"version":"2.0"
	},
	"scene":0,
	"scenes":[
		{
			"name":"Scene",
			"nodes":[
				3
			]
		}
	],
	"nodes":[
		{
			"name":"Bone.001",
			"rotation":[
				8.106109561367703e-08,
				-8.110543348038846e-08,
				0.7082318663597107,
				0.7059798836708069
			],
			"translation":[
				2.9802322387695312e-08,
				1,
				0
			]
		},
		{
			"children":[
				0
			],
			"name":"Bone",
			"translation":[
				2.9802322387695312e-08,
				0,
				0
			]
		},
		{
			"mesh":0,
			"name":"Cylinder",
			"skin":0
		},
		{
			"children":[
				2,
				1
			],
			"name":"Armature",
			"scale":[
				2.0042240619659424,
				2.0042240619659424,
				2.0042240619659424
			],
			"translation":[
				0.9999993443489075,
				0,
				0
			]
		}
	],
	"animations":[
		{
			"channels":[
				{
					"sampler":0,
					"target":{
						"node":1,
						"path":"translation"
					}
				},
				{
					"sampler":1,
					"target":{
						"node":1,
						"path":"rotation"
					}
				},
				{
					"sampler":2,
					"target":{
						"node":1,
						"path":"scale"
					}
				},
				{
					"sampler":3,
					"target":{
						"node":0,
						"path":"translation"
					}
				},
				{
					"sampler":4,
					"target":{
						"node":0,
						"path":"rotation"
					}
				},
				{
					"sampler":5,
					"target":{
						"node":0,
						"path":"scale"
					}
				}
			],
			"name":"ArmatureAction.001",
			"samplers":[
				{
					"input":7,
					"interpolation":"STEP",
					"output":8
				},
				{
					"input":7,
					"interpolation":"STEP",
					"output":9
				},
				{
					"input":7,
					"interpolation":"STEP",
					"output":10
				},
				{
					"input":7,
					"interpolation":"STEP",
					"output":11
				},
				{
					"input":12,
					"interpolation":"LINEAR",
					"output":13
				},
				{
					"input":7,
					"interpolation":"STEP",
					"output":14
				}
			]
		}
	],
	"materials":[
		{
			"doubleSided":true,
			"name":"Material",
			"pbrMetallicRoughness":{
				"baseColorFactor":[
					0.45167165994644165,
					1,
					0.9273636341094971,
					1
				],
				"roughnessFactor":0.5
			}
		}
	],
	"meshes":[
		{
			"name":"Cylinder",
			"primitives":[
				{
					"attributes":{
						"POSITION":0,
						"NORMAL":1,
						"TEXCOORD_0":2,
						"JOINTS_0":3,
						"WEIGHTS_0":4
					},
					"indices":5,
					"material":0
				}
			]
		}
	],
	"skins":[
		{
			"inverseBindMatrices":6,
			"joints":[
				1,
				0
			],
			"name":"Armature"
		}
	],
	"accessors":[
		{
			"bufferView":0,
			"componentType":5126,
			"count":483,
			"max":[
				1.0212305784225464,
				3.00809645652771,
				1.0004668235778809
			],
			"min":[
				-0.9787692427635193,
				0.006782608572393656,
				-0.9999998211860657
			],
			"type":"VEC3"
		},
		{
			"bufferView":1,
			"componentType":5126,
			"count":483,
			"type":"VEC3"
		},
		{
			"bufferView":2,
			"componentType":5126,
			"count":483,
			"type":"VEC2"
		},
		{
			"bufferView":3,
			"componentType":5121,
			"count":483,
			"type":"VEC4"
		},
		{
			"bufferView":4,
			"componentType":5126,
			"count":483,
			"type":"VEC4"
		},
		{
			"bufferView":5,
			"componentType":5123,
			"count":2202,
			"type":"SCALAR"
		},
		{
			"bufferView":6,
			"componentType":5126,
			"count":2,
			"type":"MAT4"
		},
		{
			"bufferView":7,
			"componentType":5126,
			"count":2,
			"max":[
				3.7083333333333335
			],
			"min":[
				0
			],
			"type":"SCALAR"
		},
		{
			"bufferView":8,
			"componentType":5126,
			"count":2,
			"type":"VEC3"
		},
		{
			"bufferView":9,
			"componentType":5126,
			"count":2,
			"type":"VEC4"
		},
		{
			"bufferView":10,
			"componentType":5126,
			"count":2,
			"type":"VEC3"
		},
		{
			"bufferView":11,
			"componentType":5126,
			"count":2,
			"type":"VEC3"
		},
		{
			"bufferView":12,
			"componentType":5126,
			"count":90,
			"max":[
				3.7083333333333335
			],
			"min":[
				0
			],
			"type":"SCALAR"
		},
		{
			"bufferView":13,
			"componentType":5126,
			"count":90,
			"type":"VEC4"
		},
		{
			"bufferView":14,
			"componentType":5126,
			"count":2,
			"type":"VEC3"
		}
	],
	"bufferViews":[
		{
			"buffer":0,
			"byteLength":5796,
			"byteOffset":0,
			"target":34962
		},
		{
			"buffer":0,
			"byteLength":5796,
			"byteOffset":5796,
			"target":34962
		},
		{
			"buffer":0,
			"byteLength":3864,
			"byteOffset":11592,
			"target":34962
		},
		{
			"buffer":0,
			"byteLength":1932,
			"byteOffset":15456,
			"target":34962
		},
		{
			"buffer":0,
			"byteLength":7728,
			"byteOffset":17388,
			"target":34962
		},
		{
			"buffer":0,
			"byteLength":4404,
			"byteOffset":25116,
			"target":34963
		},
		{
			"buffer":0,
			"byteLength":128,
			"byteOffset":29520
		},
		{
			"buffer":0,
			"byteLength":8,
			"byteOffset":29648
		},
		{
			"buffer":0,
			"byteLength":24,
			"byteOffset":29656
		},
		{
			"buffer":0,
			"byteLength":32,
			"byteOffset":29680
		},
		{
			"buffer":0,
			"byteLength":24,
			"byteOffset":29712
		},
		{
			"buffer":0,
			"byteLength":24,
			"byteOffset":29736
		},
		{
			"buffer":0,
			"byteLength":360,
			"byteOffset":29760
		},
		{
			"buffer":0,
			"byteLength":1440,
			"byteOffset":30120
		},
		{
			"buffer":0,
			"byteLength":24,
			"byteOffset":31560
		}
	],
	"buffers":[
		{
			"byteLength":31584,
			"uri":"trash-can-color2.bin"
		}
	]
}
