{
	"asset":{
		"generator":"Khronos glTF Blender I/O v4.1.63",
		"version":"2.0"
	},
	"scene":0,
	"scenes":[
		{
			"name":"Scene",
			"nodes":[
				3
			]
		}
	],
	"nodes":[
		{
			"name":"Bone.001",
			"rotation":[
				8.106109561367703e-08,
				-8.110543348038846e-08,
				0.7082318663597107,
				0.7059798836708069
			],
			"translation":[
				2.9802322387695312e-08,
				1,
				0
			]
		},
		{
			"children":[
				0
			],
			"name":"Bone",
			"translation":[
				2.9802322387695312e-08,
				0,
				0
			]
		},
		{
			"mesh":0,
			"name":"Cylinder",
			"skin":0
		},
		{
			"children":[
				2,
				1
			],
			"name":"Armature",
			"scale":[
				2.0042240619659424,
				2.0042240619659424,
				2.0042240619659424
			],
			"translation":[
				0.9999993443489075,
				0,
				0
			]
		}
	],
	"animations":[
		{
			"channels":[
				{
					"sampler":0,
					"target":{
						"node":1,
						"path":"translation"
					}
				},
				{
					"sampler":1,
					"target":{
						"node":1,
						"path":"rotation"
					}
				},
				{
					"sampler":2,
					"target":{
						"node":1,
						"path":"scale"
					}
				},
				{
					"sampler":3,
					"target":{
						"node":0,
						"path":"translation"
					}
				},
				{
					"sampler":4,
					"target":{
						"node":0,
						"path":"rotation"
					}
				},
				{
					"sampler":5,
					"target":{
						"node":0,
						"path":"scale"
					}
				}
			],
			"name":"ArmatureAction.001",
			"samplers":[
				{
					"input":8,
					"interpolation":"STEP",
					"output":9
				},
				{
					"input":8,
					"interpolation":"STEP",
					"output":10
				},
				{
					"input":8,
					"interpolation":"STEP",
					"output":11
				},
				{
					"input":8,
					"interpolation":"STEP",
					"output":12
				},
				{
					"input":13,
					"interpolation":"LINEAR",
					"output":14
				},
				{
					"input":8,
					"interpolation":"STEP",
					"output":15
				}
			]
		}
	],
	"meshes":[
		{
			"name":"Cylinder",
			"primitives":[
				{
					"attributes":{
						"POSITION":0,
						"NORMAL":1,
						"TEXCOORD_0":2,
						"COLOR_0":3,
						"JOINTS_0":4,
						"WEIGHTS_0":5
					},
					"indices":6
				}
			]
		}
	],
	"skins":[
		{
			"inverseBindMatrices":7,
			"joints":[
				1,
				0
			],
			"name":"Armature"
		}
	],
	"accessors":[
		{
			"bufferView":0,
			"componentType":5126,
			"count":1114,
			"max":[
				1.0212305784225464,
				3.00809645652771,
				1.0004668235778809
			],
			"min":[
				-0.9787692427635193,
				0.006782608572393656,
				-0.9999998211860657
			],
			"type":"VEC3"
		},
		{
			"bufferView":1,
			"componentType":5126,
			"count":1114,
			"type":"VEC3"
		},
		{
			"bufferView":2,
			"componentType":5126,
			"count":1114,
			"type":"VEC2"
		},
		{
			"bufferView":3,
			"componentType":5126,
			"count":1114,
			"type":"VEC3"
		},
		{
			"bufferView":4,
			"componentType":5121,
			"count":1114,
			"type":"VEC4"
		},
		{
			"bufferView":5,
			"componentType":5126,
			"count":1114,
			"type":"VEC4"
		},
		{
			"bufferView":6,
			"componentType":5123,
			"count":4836,
			"type":"SCALAR"
		},
		{
			"bufferView":7,
			"componentType":5126,
			"count":2,
			"type":"MAT4"
		},
		{
			"bufferView":8,
			"componentType":5126,
			"count":2,
			"max":[
				3.7083333333333335
			],
			"min":[
				0
			],
			"type":"SCALAR"
		},
		{
			"bufferView":9,
			"componentType":5126,
			"count":2,
			"type":"VEC3"
		},
		{
			"bufferView":10,
			"componentType":5126,
			"count":2,
			"type":"VEC4"
		},
		{
			"bufferView":11,
			"componentType":5126,
			"count":2,
			"type":"VEC3"
		},
		{
			"bufferView":12,
			"componentType":5126,
			"count":2,
			"type":"VEC3"
		},
		{
			"bufferView":13,
			"componentType":5126,
			"count":90,
			"max":[
				3.7083333333333335
			],
			"min":[
				0
			],
			"type":"SCALAR"
		},
		{
			"bufferView":14,
			"componentType":5126,
			"count":90,
			"type":"VEC4"
		},
		{
			"bufferView":15,
			"componentType":5126,
			"count":2,
			"type":"VEC3"
		}
	],
	"bufferViews":[
		{
			"buffer":0,
			"byteLength":13368,
			"byteOffset":0,
			"target":34962
		},
		{
			"buffer":0,
			"byteLength":13368,
			"byteOffset":13368,
			"target":34962
		},
		{
			"buffer":0,
			"byteLength":8912,
			"byteOffset":26736,
			"target":34962
		},
		{
			"buffer":0,
			"byteLength":13368,
			"byteOffset":35648,
			"target":34962
		},
		{
			"buffer":0,
			"byteLength":4456,
			"byteOffset":49016,
			"target":34962
		},
		{
			"buffer":0,
			"byteLength":17824,
			"byteOffset":53472,
			"target":34962
		},
		{
			"buffer":0,
			"byteLength":9672,
			"byteOffset":71296,
			"target":34963
		},
		{
			"buffer":0,
			"byteLength":128,
			"byteOffset":80968
		},
		{
			"buffer":0,
			"byteLength":8,
			"byteOffset":81096
		},
		{
			"buffer":0,
			"byteLength":24,
			"byteOffset":81104
		},
		{
			"buffer":0,
			"byteLength":32,
			"byteOffset":81128
		},
		{
			"buffer":0,
			"byteLength":24,
			"byteOffset":81160
		},
		{
			"buffer":0,
			"byteLength":24,
			"byteOffset":81184
		},
		{
			"buffer":0,
			"byteLength":360,
			"byteOffset":81208
		},
		{
			"buffer":0,
			"byteLength":1440,
			"byteOffset":81568
		},
		{
			"buffer":0,
			"byteLength":24,
			"byteOffset":83008
		}
	],
	"buffers":[
		{
			"byteLength":83032,
			"uri":"trash-can2.bin"
		}
	]
}
